<?xml version="1.0" encoding="UTF-8" standalone="no"?>
<svg
   version="1.1"
   width="311.0849"
   height="351.9252"
   viewBox="0 0 311.0849 351.9252"
   id="svg1"
   sodipodi:docname="dinah-logo-cat.svg"
   xmlns:inkscape="http://www.inkscape.org/namespaces/inkscape"
   xmlns:sodipodi="http://sodipodi.sourceforge.net/DTD/sodipodi-0.dtd"
   xmlns="http://www.w3.org/2000/svg"
   xmlns:svg="http://www.w3.org/2000/svg">
  <defs
     id="defs1" />
  <sodipodi:namedview
     id="namedview1"
     pagecolor="#ffffff"
     bordercolor="#000000"
     borderopacity="0.25"
     inkscape:showpageshadow="2"
     inkscape:pageopacity="0.0"
     inkscape:pagecheckerboard="0"
     inkscape:deskcolor="#d1d1d1" />
  <path
     d="m 223.8479,9.5481862 c -19.367,21.5829998 -30.038,42.3059998 -36.498,70.8769998 -6.475,28.641004 -7.633,32.805004 -10.909,39.224004 -7.548,14.788 -18.625,24.483 -41.052,35.929 -27.561,14.067 -41.321,23.976 -53.174,38.293 -12.093,14.606 -22.161,35.018 -25.921,52.554 -2.355,10.983 -2.351,35.048 0.007,46 2.115,9.82 7.044,25.434 8.772,27.783 2.053,2.794 15.977,3.902 44.515,3.542 25.483,-0.322 25.821,-0.354 31.435,-2.985 14.812,-6.944 22.918,-21.268 21.513,-38.02 -1.482,-17.683 -14.14,-30.134 -30.599,-30.101 -15.619,0.032 -26.398,10.347 -27.966,26.763 -0.78,8.174 -2.767,11.518 -6.844,11.518 -8.021,0 -10.126,-8.914 -5.551,-23.5 6.111,-19.479 26.637,-32.171 46.205,-28.569 14.912,2.744 26.865,11.761 33.479,25.254 14.469,29.513 -2.426,64.69 -34.017,70.831 -4.245,0.826 -15.066,1.041 -35.5,0.706 -36.858,-0.603 -44.814,-2.132 -59.895,-11.511 -7.569,-4.707 -11.534,-8.601 -16.532,-16.234 -10.966,-16.748 -12.2,-37.828 -3.488,-59.586 3.028,-7.561 11.181,-21.917 20.929,-36.85 25.52,-39.092 27.055,-69.845 4.643,-93.018 -7.432,-7.684 -11.933,-10.514 -16.729,-10.519 -2.785,-0.003 -4.181,0.636 -5.75,2.631 -3.277,4.166 -2.721,8.105 1.66,11.755 2.054,1.71 6.458,5.81 9.788,9.11 5.008,4.964 6.436,7.169 8.266,12.771 5.731,17.537 1.355,32.168 -19.006,63.542 -10.822,16.676 -19.8869996,34.697 -22.7399996,45.21 -3.35200001,12.347 -3.82100001,27.686 -1.229,40.191 5.883,28.38 24.7499996,47.186 55.6879996,55.505 9.973,2.682 10.098,2.689 46.5,2.735 l 36.5,0.046 8,-2.724 c 16.813,-5.726 28.523,-15.56 36.277,-30.464 5.417,-10.412 7.509,-19.246 7.535,-31.812 0.04,-19.002 -5.716,-33.16 -18.709,-46.022 -12.756,-12.628 -25.573,-17.949 -43.103,-17.894 -17.602,0.055 -33.663,7.857 -44.629,21.679 l -4.155,5.237 0.474,-5 c 0.26,-2.75 1.321,-6.8 2.358,-9 4.322,-9.171 17.932,-18.45 32.452,-22.125 8.438,-2.135 23.506,-2.094 32,0.088 24.233,6.226 44.195,25.954 52.148,51.537 3.362,10.817 3.359,30.21 -0.006,40.975 -5.721,18.303 -15.529,31.597 -30.595,41.469 l -6.953,4.556 h 55.703 55.703 v -4.821 c 0,-3.288 -0.874,-6.53 -2.75,-10.198 -3.174,-6.206 -7.589,-9.019 -15.322,-9.762 -4.833,-0.464 -4.843,-0.473 -5.339,-4.592 -1.23,-10.222 -1.421,-22.753 -0.546,-35.893 1.726,-25.909 5.457,-40.403 16.372,-63.601 8.753,-18.604 10.347,-23.265 11.532,-33.715 1.48,-13.045 -1.012,-27.825 -7.629,-45.246 -1.412,-3.717 -2.597,-9.044 -2.676,-12.028 -0.131,-4.924 0.127,-5.582 3.19,-8.142 1.832,-1.531 6.107,-3.553 9.5,-4.493 13.53,-3.749 21.432,-10.477 26.184,-22.296004 1.484,-3.692 2.929,-9.2 3.21,-12.24 l 0.511,-5.526 -5.111,-2.782 c -8.166,-4.444 -10.834,-7.281 -15.69,-16.684 -4.82,-9.333 -7.331,-11.872 -16.169,-16.347 -3.469,-1.757 -5.387,-3.406 -5.69,-4.892 -0.819,-4.026 -3.577,-28.387 -3.577,-31.6039998 0,-1.726 -0.288,-3.138 -0.64,-3.138 -0.762,0 -0.428,-0.405 -12.249,14.8389998 -5.164,6.659 -9.722,11.901 -10.129,11.65 -0.406,-0.251 -2.422,-7.214 -4.478,-15.473 -2.056,-8.2589998 -4.024,-14.98199984 -4.371,-14.94099984277 C 232.6329,0.04218616 228.5229,4.3381862 223.8479,9.5481862"
     stroke="none"
     fill="currentColor"
     fill-rule="evenodd"
     id="path1" />
</svg>
